HIERARCHY
ROOT joint_Root
{
	OFFSET 0.0 0.0 0.0
	CHANNELS 6 Xposition Yposition Zposition Zrotation Xrotation Yrotation 
	JOINT Hips
	{
		OFFSET 4.5925 91.4895 -427.239
		CHANNELS 6 Xposition Yposition Zposition Zrotation Xrotation Yrotation 
		JOINT Spine
		{
			OFFSET 15.7357 0.0 0.0
			CHANNELS 6 Xposition Yposition Zposition Zrotation Xrotation Yrotation 
			JOINT Chest
			{
				OFFSET 8.98455 -0.406207 0.0
				CHANNELS 6 Xposition Yposition Zposition Zrotation Xrotation Yrotation 
				JOINT Neck
				{
					OFFSET 16.3773 0.0 0.0
					CHANNELS 6 Xposition Yposition Zposition Zrotation Xrotation Yrotation 
					JOINT Head
					{
						OFFSET 6.45672 0.0 0.0
						CHANNELS 6 Xposition Yposition Zposition Zrotation Xrotation Yrotation 
						End Site
						{
							OFFSET 0.0 0.0 0.0
						}
					}
				}
				JOINT Shoulder_L
				{
					OFFSET 12.9942 -0.242716 4.98039
					CHANNELS 6 Xposition Yposition Zposition Zrotation Xrotation Yrotation 
					JOINT UpperArm_L
					{
						OFFSET 5.34809 0.0 0.0
						CHANNELS 6 Xposition Yposition Zposition Zrotation Xrotation Yrotation 
						JOINT LowerArm_L
						{
							OFFSET 24.3286 1.87007e-05 0.0
							CHANNELS 6 Xposition Yposition Zposition Zrotation Xrotation Yrotation 
							JOINT Hand_L
							{
								OFFSET 22.2916 0.0 0.0
								CHANNELS 6 Xposition Yposition Zposition Zrotation Xrotation Yrotation 
								End Site
								{
									OFFSET 0.0 0.0 0.0
								}
							}
						}
					}
				}
				JOINT Shoulder_R
				{
					OFFSET 12.9945 -0.242716 -4.98039
					CHANNELS 6 Xposition Yposition Zposition Zrotation Xrotation Yrotation 
					JOINT UpperArm_R
					{
						OFFSET -5.34813 0.0 0.0
						CHANNELS 6 Xposition Yposition Zposition Zrotation Xrotation Yrotation 
						JOINT LowerArm_R
						{
							OFFSET -24.3289 0.000322201 0.0
							CHANNELS 6 Xposition Yposition Zposition Zrotation Xrotation Yrotation 
							JOINT Hand_R
							{
								OFFSET -22.2915 -0.000108084 0.0
								CHANNELS 6 Xposition Yposition Zposition Zrotation Xrotation Yrotation 
								End Site
								{
									OFFSET 0.0 0.0 0.0
								}
							}
						}
					}
				}
			}
		}
		JOINT UpperLeg_L
		{
			OFFSET -2.19248 -6.46944 0.0
			CHANNELS 6 Xposition Yposition Zposition Zrotation Xrotation Yrotation 
			JOINT LowerLeg_L
			{
				OFFSET 39.0811 0.0 -1.23785e-05
				CHANNELS 6 Xposition Yposition Zposition Zrotation Xrotation Yrotation 
				JOINT Foot_L
				{
					OFFSET 40.9854 0.0 -1.26872e-05
					CHANNELS 6 Xposition Yposition Zposition Zrotation Xrotation Yrotation 
					JOINT Toes_L
					{
						OFFSET 11.7543 0.0 0.0
						CHANNELS 6 Xposition Yposition Zposition Zrotation Xrotation Yrotation 
						End Site
						{
							OFFSET 0.0 0.0 0.0
						}
					}
				}
			}
		}
		JOINT UpperLeg_R
		{
			OFFSET -2.19251 6.46944 0.0
			CHANNELS 6 Xposition Yposition Zposition Zrotation Xrotation Yrotation 
			JOINT LowerLeg_R
			{
				OFFSET -39.0811 -0.00228153 -0.0401928
				CHANNELS 6 Xposition Yposition Zposition Zrotation Xrotation Yrotation 
				JOINT Foot_R
				{
					OFFSET -40.9854 0.0 0.0
					CHANNELS 6 Xposition Yposition Zposition Zrotation Xrotation Yrotation 
					JOINT Toes_R
					{
						OFFSET -11.7543 0.0 0.0
						CHANNELS 6 Xposition Yposition Zposition Zrotation Xrotation Yrotation 
						End Site
						{
							OFFSET 0.0 0.0 0.0
						}
					}
				}
			}
		}
	}
}
MOTION
Frames:	6
Frame Time:	0.0333333
0.000000 0.000000 0.000000 0.000000 0.000000 -0.000000 -1.166110 90.299700 -5.385100 89.039200 -1.969040 10.013400 15.735700 0.000005 -0.000001 89.311200 78.145700 -89.556700 8.984550 -0.406207 -0.000000 15.940500 -0.298299 -0.449741 16.377300 -0.000001 -0.000001 3.424520 -4.992230 2.367810 6.456720 -0.000001 -0.000000 -8.799270 -4.053630 0.619325 12.994200 -0.242716 4.980390 -91.140900 5.847030 -78.939200 5.348090 -0.000007 -0.000001 -54.788200 38.282200 -30.295600 24.328600 0.000019 0.000005 9.840580 23.227600 -23.740600 22.291600 -0.000001 0.000005 16.165500 5.074720 5.684300 12.994500 -0.242716 -4.980390 89.269100 10.201400 -85.879900 -5.348130 -0.000001 -0.000004 -55.975700 36.611200 -24.058300 -24.328900 0.000322 -0.000009 3.139440 6.894520 -24.562700 -22.291500 -0.000108 -0.000004 23.116900 5.363160 -1.776450 -2.192480 -6.469440 -0.000000 -174.635000 -10.505700 -6.103540 39.081100 -0.000007 -0.000012 -0.201618 0.288609 34.937900 40.985400 -0.000006 -0.000013 -0.174658 4.203560 -68.670000 11.754300 -0.000000 0.000003 -0.000068 -0.000741 -16.606200 -2.192510 6.469440 -0.000001 176.756000 19.052700 175.398000 -39.081100 -0.002282 -0.040193 -0.165363 0.249108 34.099700 -40.985400 0.000008 0.000006 4.420370 10.090100 -69.637200 -11.754300 -0.000006 -0.000006 -0.003844 -0.049810 -18.599200
0.000000 0.000000 0.000000 0.000000 0.000000 -0.000000 -1.155950 90.299700 -5.477190 89.045100 -1.962260 10.075600 15.735700 0.000005 -0.000001 89.234700 78.101800 -89.486600 8.984550 -0.406207 -0.000000 16.027800 -0.331232 -0.457697 16.377300 -0.000001 -0.000001 3.528540 -4.910350 2.373120 6.456720 -0.000001 -0.000000 -8.925620 -3.971070 0.732919 12.994200 -0.242716 4.980390 -91.131100 5.684860 -78.727500 5.348090 -0.000007 -0.000001 -54.228400 37.947600 -30.720600 24.328600 0.000019 0.000005 10.841700 24.211200 -25.031800 22.291600 -0.000001 0.000005 16.553000 5.054970 6.127270 12.994500 -0.242716 -4.980390 89.244000 10.098700 -85.696300 -5.348130 -0.000001 -0.000004 -56.397900 34.538900 -23.561100 -24.328900 0.000322 -0.000009 3.561690 7.194070 -26.435800 -22.291500 -0.000108 -0.000004 24.924200 5.358740 -1.641060 -2.192480 -6.469440 -0.000000 -174.632000 -10.473300 -6.104180 39.081100 -0.000007 -0.000012 -0.206144 0.295074 34.939200 40.985400 -0.000006 -0.000013 -0.161678 4.256390 -68.611800 11.754300 -0.000000 0.000003 -0.000062 -0.000680 -16.603900 -2.192510 6.469440 -0.000001 176.749000 19.103000 175.376000 -39.081100 -0.002282 -0.040193 -0.162625 0.244701 34.139100 -40.985400 0.000008 0.000006 4.582290 10.082700 -69.622800 -11.754300 -0.000006 -0.000006 -0.004062 -0.052082 -18.691700
0.000000 0.000000 0.000000 0.000000 0.000000 -0.000000 -1.153870 90.301500 -5.575890 89.058600 -1.910080 10.154600 15.735700 0.000005 -0.000001 89.179100 78.072100 -89.438000 8.984550 -0.406207 -0.000000 16.086700 -0.355398 -0.468175 16.377300 -0.000001 -0.000001 3.716460 -4.884540 2.403180 6.456720 -0.000001 -0.000000 -9.105860 -3.900630 0.789419 12.994200 -0.242716 4.980390 -91.122700 5.595120 -78.634800 5.348090 -0.000007 -0.000001 -54.072900 36.422600 -30.581100 24.328600 0.000019 0.000005 12.213800 24.978100 -27.139700 22.291600 -0.000001 0.000005 16.786300 5.045910 6.326550 12.994500 -0.242716 -4.980390 89.193000 10.034300 -85.378100 -5.348130 -0.000001 -0.000004 -56.598900 31.987900 -23.197000 -24.328900 0.000322 -0.000009 3.556810 6.507220 -28.752900 -22.291500 -0.000108 -0.000004 26.343400 5.360230 -1.685270 -2.192480 -6.469440 -0.000000 -174.650000 -10.499200 -6.115110 39.081100 -0.000007 -0.000012 -0.201934 0.289068 34.937400 40.985400 -0.000006 -0.000013 -0.132152 4.299150 -68.523800 11.754300 -0.000000 0.000003 -0.000068 -0.000740 -16.606100 -2.192510 6.469440 -0.000001 176.703000 19.137100 175.399000 -39.081100 -0.002282 -0.040193 -0.169022 0.254271 34.124900 -40.985400 0.000008 0.000006 4.422720 10.111600 -69.516100 -11.754300 -0.000006 -0.000006 -0.003983 -0.051261 -18.658300
0.000000 0.000000 0.000000 0.000000 0.000000 -0.000000 -1.139560 90.297900 -5.693610 89.067900 -1.912900 10.183400 15.735700 0.000005 -0.000001 89.103200 78.065700 -89.368800 8.984550 -0.406207 -0.000000 16.099100 -0.387273 -0.477102 16.377300 -0.000001 -0.000001 3.849240 -4.826610 2.444910 6.456720 -0.000001 -0.000000 -9.205560 -3.799500 0.772618 12.994200 -0.242716 4.980390 -91.139000 5.567140 -78.418100 5.348090 -0.000007 -0.000001 -53.983600 34.109700 -30.385800 24.328600 0.000019 0.000005 13.346300 24.813300 -29.480500 22.291600 -0.000001 0.000005 18.024400 5.028540 6.704580 12.994500 -0.242716 -4.980390 89.144800 9.909500 -85.042400 -5.348130 -0.000001 -0.000004 -56.703600 28.898000 -23.069300 -24.328900 0.000322 -0.000009 3.731430 6.134490 -31.403200 -22.291500 -0.000108 -0.000004 27.870800 5.365420 -1.846110 -2.192480 -6.469440 -0.000000 -174.669000 -10.547800 -6.184640 39.081100 -0.000007 -0.000012 -0.198180 0.283421 34.963200 40.985400 -0.000006 -0.000013 -0.098690 4.349970 -68.453600 11.754300 -0.000000 0.000003 -0.000067 -0.000729 -16.605700 -2.192510 6.469440 -0.000001 176.697000 19.143600 175.320000 -39.081100 -0.002282 -0.040193 -0.173171 0.260160 34.148800 -40.985400 0.000008 0.000006 4.319680 10.129500 -69.412900 -11.754300 -0.000006 -0.000006 -0.004025 -0.051702 -18.676200
0.000000 0.000000 0.000000 0.000000 0.000000 -0.000000 -1.128270 90.303800 -5.818070 89.058600 -1.885410 10.230600 15.735700 0.000005 -0.000001 88.951300 78.076500 -89.222000 8.984550 -0.406207 -0.000000 16.076300 -0.449507 -0.478547 16.377300 -0.000001 -0.000001 4.098580 -4.766720 2.461890 6.456720 -0.000001 -0.000000 -9.313650 -3.724220 0.800991 12.994200 -0.242716 4.980390 -91.134400 5.484660 -78.295900 5.348090 -0.000007 -0.000001 -54.015500 30.985000 -30.065600 24.328600 0.000019 0.000005 14.235900 23.795800 -32.161600 22.291600 -0.000001 0.000005 19.091200 5.016480 6.967000 12.994500 -0.242716 -4.980390 89.109900 9.719420 -84.741900 -5.348130 -0.000001 -0.000004 -56.542400 25.661700 -23.320500 -24.328900 0.000322 -0.000009 3.989720 5.903520 -34.147900 -22.291500 -0.000108 -0.000004 29.333200 5.371540 -2.034330 -2.192480 -6.469440 -0.000000 -174.673000 -10.533500 -6.228150 39.081100 -0.000007 -0.000012 -0.197429 0.282461 34.952400 40.985400 -0.000006 -0.000013 -0.074898 4.383020 -68.357600 11.754300 -0.000000 0.000003 -0.000071 -0.000766 -16.607100 -2.192510 6.469440 -0.000001 176.712000 19.181300 175.285000 -39.081100 -0.002282 -0.040193 -0.167902 0.252441 34.143600 -40.985400 0.000008 0.000006 4.405120 10.123200 -69.343800 -11.754300 -0.000006 -0.000006 -0.003890 -0.050292 -18.618800
0.000000 0.000000 0.000000 0.000000 0.000000 -0.000000 -1.118170 90.305800 -5.948020 89.057500 -1.871800 10.281700 15.735700 0.000005 -0.000001 88.867700 78.094700 -89.146100 8.984550 -0.406207 -0.000000 16.039300 -0.483587 -0.489231 16.377300 -0.000001 -0.000001 4.356480 -4.736720 2.533890 6.456720 -0.000001 -0.000000 -9.400990 -3.674410 0.779313 12.994200 -0.242716 4.980390 -91.132100 5.397800 -78.136200 5.348090 -0.000007 -0.000001 -53.826700 27.433500 -30.139300 24.328600 0.000019 0.000005 15.379800 23.050200 -35.088800 22.291600 -0.000001 0.000005 19.847700 5.012000 7.062900 12.994500 -0.242716 -4.980390 89.089400 9.516360 -84.508300 -5.348130 -0.000001 -0.000004 -56.325600 21.948700 -23.733400 -24.328900 0.000322 -0.000009 4.502680 5.964270 -37.162300 -22.291500 -0.000108 -0.000004 30.489400 5.370610 -2.006150 -2.192480 -6.469440 -0.000000 -174.680000 -10.587500 -6.278420 39.081100 -0.000007 -0.000012 -0.195360 0.279448 34.957400 40.985400 -0.000006 -0.000013 -0.049065 4.399940 -68.262200 11.754300 -0.000000 0.000003 -0.000073 -0.000788 -16.608000 -2.192510 6.469440 -0.000001 176.706000 19.234300 175.244000 -39.081100 -0.002282 -0.040193 -0.169859 0.255421 34.133800 -40.985400 0.000008 0.000006 4.318140 10.179800 -69.222800 -11.754300 -0.000006 -0.000006 -0.003810 -0.049451 -18.584500
